<mxfile host="65bd71144e">
    <diagram id="0iHzktLCq-jtWgTB4ENq" name="Page-1">
        <mxGraphModel dx="810" dy="553" grid="1" gridSize="10" guides="1" tooltips="1" connect="1" arrows="1" fold="1" page="1" pageScale="1" pageWidth="1654" pageHeight="2336" math="0" shadow="0">
            <root>
                <mxCell id="0"/>
                <mxCell id="1" parent="0"/>
                <mxCell id="23" style="edgeStyle=none;html=1;entryX=0;entryY=0.5;entryDx=0;entryDy=0;align=center;verticalAlign=bottom;" edge="1" parent="1" source="14" target="17">
                    <mxGeometry relative="1" as="geometry"/>
                </mxCell>
                <mxCell id="27" style="edgeStyle=none;html=1;align=center;verticalAlign=bottom;" edge="1" parent="1" source="14" target="15">
                    <mxGeometry relative="1" as="geometry"/>
                </mxCell>
                <mxCell id="33" style="edgeStyle=none;html=1;entryX=0.5;entryY=1;entryDx=0;entryDy=0;align=center;verticalAlign=bottom;" edge="1" parent="1" source="14" target="20">
                    <mxGeometry relative="1" as="geometry"/>
                </mxCell>
                <mxCell id="14" value="user" style="whiteSpace=wrap;html=1;align=center;verticalAlign=bottom;" vertex="1" parent="1">
                    <mxGeometry x="405" y="470" width="100" height="40" as="geometry"/>
                </mxCell>
                <mxCell id="29" style="edgeStyle=none;html=1;align=center;verticalAlign=bottom;" edge="1" parent="1" source="15">
                    <mxGeometry relative="1" as="geometry">
                        <mxPoint x="635" y="610" as="targetPoint"/>
                    </mxGeometry>
                </mxCell>
                <mxCell id="15" value="learningSubject" style="whiteSpace=wrap;html=1;align=center;verticalAlign=bottom;" vertex="1" parent="1">
                    <mxGeometry x="405" y="590" width="100" height="40" as="geometry"/>
                </mxCell>
                <mxCell id="16" value="problemsitem" style="whiteSpace=wrap;html=1;align=center;verticalAlign=bottom;" vertex="1" parent="1">
                    <mxGeometry x="655" y="300" width="100" height="40" as="geometry"/>
                </mxCell>
                <mxCell id="25" style="edgeStyle=none;html=1;entryX=0.5;entryY=1;entryDx=0;entryDy=0;align=center;verticalAlign=bottom;" edge="1" parent="1" source="17" target="16">
                    <mxGeometry relative="1" as="geometry"/>
                </mxCell>
                <mxCell id="17" value="problems" style="whiteSpace=wrap;html=1;align=center;verticalAlign=bottom;" vertex="1" parent="1">
                    <mxGeometry x="655" y="470" width="100" height="40" as="geometry"/>
                </mxCell>
                <mxCell id="31" style="edgeStyle=none;html=1;entryX=0;entryY=0.5;entryDx=0;entryDy=0;align=center;verticalAlign=bottom;" edge="1" parent="1" source="18" target="19">
                    <mxGeometry relative="1" as="geometry"/>
                </mxCell>
                <mxCell id="18" value="learningSubjectItem" style="whiteSpace=wrap;html=1;align=center;verticalAlign=bottom;" vertex="1" parent="1">
                    <mxGeometry x="640" y="590" width="130" height="40" as="geometry"/>
                </mxCell>
                <mxCell id="19" value="reviews" style="whiteSpace=wrap;html=1;align=center;verticalAlign=bottom;" vertex="1" parent="1">
                    <mxGeometry x="920" y="590" width="130" height="40" as="geometry"/>
                </mxCell>
                <mxCell id="37" style="edgeStyle=none;html=1;exitX=0.5;exitY=0;exitDx=0;exitDy=0;align=center;verticalAlign=bottom;" edge="1" parent="1" source="20" target="21">
                    <mxGeometry relative="1" as="geometry"/>
                </mxCell>
                <mxCell id="20" value="problem solution" style="whiteSpace=wrap;html=1;align=center;verticalAlign=bottom;" vertex="1" parent="1">
                    <mxGeometry x="405" y="330" width="100" height="40" as="geometry"/>
                </mxCell>
                <mxCell id="39" style="edgeStyle=none;html=1;exitX=1;exitY=0.5;exitDx=0;exitDy=0;entryX=0;entryY=0.5;entryDx=0;entryDy=0;align=center;verticalAlign=bottom;" edge="1" parent="1" source="21" target="22">
                    <mxGeometry relative="1" as="geometry"/>
                </mxCell>
                <mxCell id="21" value="problem quizz" style="whiteSpace=wrap;html=1;align=center;verticalAlign=bottom;" vertex="1" parent="1">
                    <mxGeometry x="400" y="240" width="110" height="40" as="geometry"/>
                </mxCell>
                <mxCell id="22" value="problem quiz item" style="whiteSpace=wrap;html=1;align=center;verticalAlign=bottom;" vertex="1" parent="1">
                    <mxGeometry x="640" y="240" width="130" height="40" as="geometry"/>
                </mxCell>
                <mxCell id="24" value="enroll" style="text;strokeColor=none;align=center;fillColor=none;html=1;verticalAlign=bottom;whiteSpace=wrap;rounded=0;" vertex="1" parent="1">
                    <mxGeometry x="545" y="460" width="60" height="30" as="geometry"/>
                </mxCell>
                <mxCell id="26" value="contains" style="text;strokeColor=none;align=center;fillColor=none;html=1;verticalAlign=bottom;whiteSpace=wrap;rounded=0;rotation=-90;" vertex="1" parent="1">
                    <mxGeometry x="695" y="400" width="60" height="30" as="geometry"/>
                </mxCell>
                <mxCell id="28" value="enroll" style="text;strokeColor=none;align=center;fillColor=none;html=1;verticalAlign=bottom;whiteSpace=wrap;rounded=0;rotation=-90;" vertex="1" parent="1">
                    <mxGeometry x="440" y="530" width="60" height="30" as="geometry"/>
                </mxCell>
                <mxCell id="30" value="contains" style="text;strokeColor=none;align=center;fillColor=none;html=1;verticalAlign=bottom;whiteSpace=wrap;rounded=0;" vertex="1" parent="1">
                    <mxGeometry x="535" y="580" width="60" height="30" as="geometry"/>
                </mxCell>
                <mxCell id="32" value="contains" style="text;strokeColor=none;align=center;fillColor=none;html=1;verticalAlign=bottom;whiteSpace=wrap;rounded=0;" vertex="1" parent="1">
                    <mxGeometry x="815" y="585" width="60" height="20" as="geometry"/>
                </mxCell>
                <mxCell id="34" value="submit" style="text;strokeColor=none;align=center;fillColor=none;html=1;verticalAlign=bottom;whiteSpace=wrap;rounded=0;rotation=-90;" vertex="1" parent="1">
                    <mxGeometry x="405" y="373.75" width="60" height="82.5" as="geometry"/>
                </mxCell>
                <mxCell id="38" value="contains" style="text;strokeColor=none;align=center;fillColor=none;html=1;verticalAlign=bottom;whiteSpace=wrap;rounded=0;rotation=-90;" vertex="1" parent="1">
                    <mxGeometry x="450" y="290" width="60" height="30" as="geometry"/>
                </mxCell>
                <mxCell id="40" value="contains" style="text;strokeColor=none;align=center;fillColor=none;html=1;verticalAlign=bottom;whiteSpace=wrap;rounded=0;rotation=0;" vertex="1" parent="1">
                    <mxGeometry x="535" y="240" width="60" height="30" as="geometry"/>
                </mxCell>
            </root>
        </mxGraphModel>
    </diagram>
</mxfile>